TITLE ""
FILE "P1Q_t_0759-0768.mp3" MP3
  TRACK 01 AUDIO
    TITLE "P1Q_t_0759-0768_01"
    INDEX 01 00:00:00
  TRACK 02 AUDIO
    TITLE "P1Q_t_0759-0768_02"
    INDEX 01 00:01:23
  TRACK 03 AUDIO
    TITLE "P1Q_t_0759-0768_03"
    INDEX 01 00:01:43
  TRACK 04 AUDIO
    TITLE "P1Q_t_0759-0768_04"
    INDEX 01 00:04:16
  TRACK 05 AUDIO
    TITLE "P1Q_t_0759-0768_05"
    INDEX 01 00:04:36
  TRACK 06 AUDIO
    TITLE "P1Q_t_0759-0768_06"
    INDEX 01 00:07:63
  TRACK 07 AUDIO
    TITLE "P1Q_t_0759-0768_07"
    INDEX 01 00:08:33
  TRACK 08 AUDIO
    TITLE "P1Q_t_0759-0768_08"
    INDEX 01 00:09:43
  TRACK 09 AUDIO
    TITLE "P1Q_t_0759-0768_09"
    INDEX 01 00:09:66
  TRACK 10 AUDIO
    TITLE "P1Q_t_0759-0768_10"
    INDEX 01 00:12:15
  TRACK 11 AUDIO
    TITLE "P1Q_t_0759-0768_11"
    INDEX 01 00:12:35
  TRACK 12 AUDIO
    TITLE "P1Q_t_0759-0768_12"
    INDEX 01 00:16:56
  TRACK 13 AUDIO
    TITLE "P1Q_t_0759-0768_13"
    INDEX 01 00:17:26
  TRACK 14 AUDIO
    TITLE "P1Q_t_0759-0768_14"
    INDEX 01 00:18:40
  TRACK 15 AUDIO
    TITLE "P1Q_t_0759-0768_15"
    INDEX 01 00:18:61
  TRACK 16 AUDIO
    TITLE "P1Q_t_0759-0768_16"
    INDEX 01 00:20:03
  TRACK 17 AUDIO
    TITLE "P1Q_t_0759-0768_17"
    INDEX 01 00:20:25
  TRACK 18 AUDIO
    TITLE "P1Q_t_0759-0768_18"
    INDEX 01 00:24:05
  TRACK 19 AUDIO
    TITLE "P1Q_t_0759-0768_19"
    INDEX 01 00:24:50
  TRACK 20 AUDIO
    TITLE "P1Q_t_0759-0768_20"
    INDEX 01 00:25:65
  TRACK 21 AUDIO
    TITLE "P1Q_t_0759-0768_21"
    INDEX 01 00:26:10
  TRACK 22 AUDIO
    TITLE "P1Q_t_0759-0768_22"
    INDEX 01 00:27:54
  TRACK 23 AUDIO
    TITLE "P1Q_t_0759-0768_23"
    INDEX 01 00:28:01
  TRACK 24 AUDIO
    TITLE "P1Q_t_0759-0768_24"
    INDEX 01 00:33:31
  TRACK 25 AUDIO
    TITLE "P1Q_t_0759-0768_25"
    INDEX 01 00:34:03
  TRACK 26 AUDIO
    TITLE "P1Q_t_0759-0768_26"
    INDEX 01 00:35:26
  TRACK 27 AUDIO
    TITLE "P1Q_t_0759-0768_27"
    INDEX 01 00:35:48
  TRACK 28 AUDIO
    TITLE "P1Q_t_0759-0768_28"
    INDEX 01 00:37:62
  TRACK 29 AUDIO
    TITLE "P1Q_t_0759-0768_29"
    INDEX 01 00:38:07
  TRACK 30 AUDIO
    TITLE "P1Q_t_0759-0768_30"
    INDEX 01 00:42:15
  TRACK 31 AUDIO
    TITLE "P1Q_t_0759-0768_31"
    INDEX 01 00:42:62
  TRACK 32 AUDIO
    TITLE "P1Q_t_0759-0768_32"
    INDEX 01 00:43:73
  TRACK 33 AUDIO
    TITLE "P1Q_t_0759-0768_33"
    INDEX 01 00:44:21
  TRACK 34 AUDIO
    TITLE "P1Q_t_0759-0768_34"
    INDEX 01 00:48:31
  TRACK 35 AUDIO
    TITLE "P1Q_t_0759-0768_35"
    INDEX 01 00:48:50
  TRACK 36 AUDIO
    TITLE "P1Q_t_0759-0768_36"
    INDEX 01 00:52:29
  TRACK 37 AUDIO
    TITLE "P1Q_t_0759-0768_37"
    INDEX 01 00:53:03
  TRACK 38 AUDIO
    TITLE "P1Q_t_0759-0768_38"
    INDEX 01 00:54:14
  TRACK 39 AUDIO
    TITLE "P1Q_t_0759-0768_39"
    INDEX 01 00:54:35
  TRACK 40 AUDIO
    TITLE "P1Q_t_0759-0768_40"
    INDEX 01 00:56:56
  TRACK 41 AUDIO
    TITLE "P1Q_t_0759-0768_41"
    INDEX 01 00:57:02
  TRACK 42 AUDIO
    TITLE "P1Q_t_0759-0768_42"
    INDEX 01 01:01:14
  TRACK 43 AUDIO
    TITLE "P1Q_t_0759-0768_43"
    INDEX 01 01:01:61
  TRACK 44 AUDIO
    TITLE "P1Q_t_0759-0768_44"
    INDEX 01 01:02:66
  TRACK 45 AUDIO
    TITLE "P1Q_t_0759-0768_45"
    INDEX 01 01:03:15
  TRACK 46 AUDIO
    TITLE "P1Q_t_0759-0768_46"
    INDEX 01 01:05:06
  TRACK 47 AUDIO
    TITLE "P1Q_t_0759-0768_47"
    INDEX 01 01:05:25
  TRACK 48 AUDIO
    TITLE "P1Q_t_0759-0768_48"
    INDEX 01 01:09:39
  TRACK 49 AUDIO
    TITLE "P1Q_t_0759-0768_49"
    INDEX 01 01:10:09
  TRACK 50 AUDIO
    TITLE "P1Q_t_0759-0768_50"
    INDEX 01 01:11:30
  TRACK 51 AUDIO
    TITLE "P1Q_t_0759-0768_51"
    INDEX 01 01:11:52
  TRACK 52 AUDIO
    TITLE "P1Q_t_0759-0768_52"
    INDEX 01 01:13:62
  TRACK 53 AUDIO
    TITLE "P1Q_t_0759-0768_53"
    INDEX 01 01:14:05
  TRACK 54 AUDIO
    TITLE "P1Q_t_0759-0768_54"
    INDEX 01 01:18:52
  TRACK 55 AUDIO
    TITLE "P1Q_t_0759-0768_55"
    INDEX 01 01:19:22
  TRACK 56 AUDIO
    TITLE "P1Q_t_0759-0768_56"
    INDEX 01 01:20:41
  TRACK 57 AUDIO
    TITLE "P1Q_t_0759-0768_57"
    INDEX 01 01:20:64
  TRACK 58 AUDIO
    TITLE "P1Q_t_0759-0768_58"
    INDEX 01 01:22:63
  TRACK 59 AUDIO
    TITLE "P1Q_t_0759-0768_59"
    INDEX 01 01:23:08
  TRACK 60 AUDIO
    TITLE "P1Q_t_0759-0768_60"
    INDEX 01 01:28:21
